<?xml version="1.0" encoding="utf-8"?><!DOCTYPE svg PUBLIC "-//W3C//DTD SVG 1.1//EN" "http://www.w3.org/Graphics/SVG/1.1/DTD/svg11.dtd"><svg version="1.1" baseProfile="full" xmlns="http://www.w3.org/2000/svg" xmlns:xlink="http://www.w3.org/1999/xlink" xmlns:ev="http://www.w3.org/2001/xml-events" height="25.9px" width="22.9px" ><path fill="rgb( 255, 255, 255 )" d="M19.781,23.9880000000001 C19.781,23.9880000000001 1.21899999999999,23.9880000000001 1.21899999999999,23.9880000000001 C0.54599999999999,23.9880000000001 0,23.4290000000001 0,22.74 C0,22.74 0,15.5890000000002 0,15.5890000000002 C0,14.9000000000001 0.86399999999998,14.3410000000001 1.53699999999998,14.3410000000001 C2.21100000000001,14.3410000000001 2.99400000000003,14.9000000000001 2.99400000000003,15.5890000000002 C2.99400000000003,15.5890000000002 3.029,20.9970000000001 3.029,20.9970000000001 C3.029,20.9970000000001 17.967,20.9970000000001 17.967,20.9970000000001 C17.967,20.9970000000001 18.002,15.5890000000002 18.002,15.5890000000002 C18.002,14.9000000000001 18.789,14.3410000000001 19.463,14.3410000000001 C20.136,14.3410000000001 21,14.9000000000001 21,15.5890000000002 C21,15.5890000000002 21,22.74 21,22.74 C21,23.4290000000001 20.454,23.9880000000001 19.781,23.9880000000001 ZM11.074,16.6880000000001 C10.94,16.8790000000001 10.725,16.992 10.497,16.992 C10.268,16.992 10.053,16.8790000000001 9.91800000000001,16.6880000000001 C9.91800000000001,16.6880000000001 5.14499999999998,9.89700000000016 5.14499999999998,9.89700000000016 C4.98599999999999,9.673 4.964,9.37599999999998 5.08699999999999,9.12900000000013 C5.20800000000003,8.88200000000006 5.45400000000001,8.72600000000011 5.72199999999998,8.72500000000014 C5.72199999999998,8.72500000000014 8.98899999999998,8.72500000000014 8.98899999999998,8.72500000000014 C8.98899999999998,8.72500000000014 8.98899999999998,1.72299999999996 8.98899999999998,1.72299999999996 C8.98899999999998,0.77099999999996 9.57600000000002,0 10.497,0 C11.417,0 12.035,0.77099999999996 12.035,1.72299999999996 C12.035,1.72299999999996 12.035,8.72500000000014 12.035,8.72500000000014 C12.035,8.72500000000014 15.27,8.72500000000014 15.27,8.72500000000014 C15.538,8.72500000000014 15.784,8.88100000000009 15.906,9.12900000000013 C16.028,9.37599999999998 16.005,9.67200000000003 15.848,9.89700000000016 C15.848,9.89700000000016 11.074,16.6880000000001 11.074,16.6880000000001 Z "/></svg>