<?xml version="1.0" encoding="utf-8"?><!DOCTYPE svg PUBLIC "-//W3C//DTD SVG 1.1//EN" "http://www.w3.org/Graphics/SVG/1.1/DTD/svg11.dtd"><svg version="1.1" baseProfile="full" xmlns="http://www.w3.org/2000/svg" xmlns:xlink="http://www.w3.org/1999/xlink" xmlns:ev="http://www.w3.org/2001/xml-events" height="31.9px" width="31.9px" ><path fill="rgb( 255, 255, 255 )" d="M14.995,0 C6.714,0 0,6.71399999999994 0,14.9950000000001 C0,23.277 6.714,29.99 14.995,29.99 C23.276,29.99 29.99,23.277 29.99,14.9950000000001 C29.99,6.71399999999994 23.276,0 14.995,0 ZM18.164,15.817 C18.164,15.817 15.937,15.817 15.937,15.817 C15.937,15.817 15.937,22.4929999999999 15.937,22.4929999999999 C15.937,22.4929999999999 12.673,22.4929999999999 12.673,22.4929999999999 C12.673,22.4929999999999 12.673,15.7840000000001 12.673,15.7840000000001 C12.673,15.7840000000001 10.95,15.7730000000001 10.95,15.7730000000001 C10.95,15.7730000000001 10.95,12.954 10.95,12.954 C10.95,12.954 12.662,12.954 12.662,12.954 C12.662,12.954 12.662,11.471 12.662,10.0940000000001 C12.662,8.75600000000009 14.17,7.49800000000005 15.191,7.49800000000005 C16.724,7.49800000000005 18.153,7.49800000000005 18.153,7.49800000000005 C18.153,7.49800000000005 18.153,10.3320000000001 18.153,10.3320000000001 C18.153,10.3320000000001 17.271,10.3320000000001 16.567,10.3320000000001 C16.11,10.3320000000001 15.96,10.7090000000001 15.96,10.991 C15.96,11.723 15.96,13.0330000000001 15.96,13.0330000000001 C15.96,13.0330000000001 18.703,13.0330000000001 18.703,13.0330000000001 C18.703,13.0330000000001 18.164,15.817 18.164,15.817 Z "/></svg>