<svg xmlns="http://www.w3.org/2000/svg" xmlns:xlink="http://www.w3.org/1999/xlink" preserveAspectRatio="xMidYMid" width="38" height="24" viewBox="0 0 38 24">
  <defs>
    <style>

      .cls-2 {
        fill: #ffffff;
      }
    </style>
  </defs>
  <path d="M1.256,2.246 C2.286,2.789 16.557,10.302 17.088,10.582 C17.619,10.861 18.307,10.996 19.001,10.996 C19.694,10.996 20.383,10.861 20.914,10.582 C21.445,10.302 35.715,2.789 36.746,2.246 C37.777,1.704 38.753,0.000 36.859,0.000 C36.859,0.000 1.143,0.000 1.143,0.000 C-0.750,0.000 0.225,1.704 1.256,2.246 ZM37.183,6.384 C36.012,6.983 21.631,14.353 20.914,14.720 C20.197,15.087 19.694,15.134 19.001,15.134 C18.307,15.134 17.805,15.087 17.088,14.720 C16.371,14.353 1.991,6.983 0.819,6.384 C-0.005,5.963 0.002,6.457 0.002,6.838 C0.002,7.220 0.002,22.016 0.002,22.016 C0.002,22.883 1.181,24.000 2.096,24.000 C2.096,24.000 35.906,24.000 35.906,24.000 C36.821,24.000 38.000,22.883 38.000,22.016 C38.000,22.016 38.000,7.220 38.000,6.838 C38.000,6.457 38.008,5.963 37.183,6.384 Z" id="path-1" class="cls-2" fill-rule="evenodd"/>
</svg>
